<svg xmlns="http://www.w3.org/2000/svg" aria-hidden="true" style="position:absolute;width:0;height:0;overflow:hidden">
  <defs>
    <symbol id="icon-log-out" viewBox="0 0 32 32">
      <path stroke-linecap="round" stroke-linejoin="round" stroke-width="1.6" d="M31.2 16H7.815m0 0 7.015-7.015M7.815 16l7.015 7.015M11.323.8H5.477A4.677 4.677 0 0 0 .8 5.477v21.046A4.677 4.677 0 0 0 5.477 31.2h5.846"/>
    </symbol>
    <symbol id="icon-bookmark" viewBox="0 0 32 32">
      <path stroke-linecap="round" stroke-linejoin="round" stroke-width="1.882" d="M15.995.941c2.379 0 4.562.228 6.292.491 2.191.333 3.908 1.834 4.397 3.932.59 2.532 1.169 6.385 1.07 11.559-.11 5.709-.943 9.829-1.746 12.516-.217.727-.72 1.101-1.289 1.197-.594.1-1.328-.098-1.925-.691-1.086-1.081-2.329-2.248-3.476-3.151-.572-.45-1.142-.852-1.671-1.145-.499-.277-1.083-.528-1.653-.528-.56 0-1.165.247-1.693.518-.563.289-1.186.686-1.824 1.136-1.277.902-2.692 2.07-3.938 3.153-.658.571-1.432.706-2.042.54-.589-.16-1.086-.613-1.239-1.401-.525-2.707-1.024-6.705-1.024-12.127 0-5.409.557-9.224 1.112-11.68.46-2.035 2.12-3.485 4.255-3.814a42.287 42.287 0 0 1 6.392-.505z"/>
    </symbol>
    <symbol id="icon-burger-regular" viewBox="0 0 32 32">
      <path stroke-linecap="round" stroke-width="2.246" d="M1.684 5.615h28.632M1.684 25.826h28.632M1.684 15.72h28.632"/>
    </symbol>
    <symbol id="icon-check-alternative" viewBox="0 0 32 32">
      <path stroke-linecap="round" stroke-linejoin="round" stroke-width="4" d="M4 14.588 12.889 24 28 8"/>
    </symbol>
    <symbol id="icon-chevron-down" viewBox="0 0 32 32">
      <path stroke-linecap="round" stroke-linejoin="round" stroke-width="3.2" d="M30.4 8.8 16 23.2 1.6 8.8"/>
    </symbol>
    <symbol id="icon-chevron-up" viewBox="0 0 32 32">
      <path stroke-linecap="round" stroke-linejoin="round" stroke-width="3.2" d="M1.6 23.2 16 8.8l14.4 14.4"/>
    </symbol>
    <symbol id="icon-clock" viewBox="0 0 32 32">
      <path stroke-linecap="round" stroke-linejoin="round" d="M16 7.231v9.865l6.577 5.481M30.25 16c0 7.87-6.38 14.25-14.25 14.25S1.75 23.87 1.75 16 8.13 1.75 16 1.75 30.25 8.13 30.25 16z"/>
    </symbol>
    <symbol id="icon-close" viewBox="0 0 32 32">
      <path stroke-linecap="round" stroke-linejoin="round" stroke-width="2" d="M2.5 2.5 16 16m0 0L2.5 29.5M16 16l13.5 13.5M16 16 29.5 2.5"/>
    </symbol>
    <symbol id="icon-delete" viewBox="0 0 32 32">
      <path stroke-linecap="round" stroke-linejoin="round" stroke-width="2" d="M16 24.769V11.615M1.75 6.135h3.288m25.212 0h-3.288m-5.481 0H10.519m10.962 0V3.943a2.192 2.192 0 0 0-2.192-2.192h-6.577a2.192 2.192 0 0 0-2.192 2.192v2.192m10.961 0h5.481m-16.443 0H5.038m21.924 0v19.731a4.385 4.385 0 0 1-4.385 4.385H9.423a4.385 4.385 0 0 1-4.385-4.385V6.135"/>
    </symbol>
    <symbol id="icon-eye-crossed" viewBox="0 0 32 32">
      <path stroke-linecap="round" stroke-width="2" d="M20.821 26.975c-1.629.756-3.437 1.249-5.34 1.249-7.169 0-12.981-6.982-12.981-8.756 0-1.006 1.867-3.685 4.791-5.817m19.613 8.622c.993-1.195 1.558-2.253 1.558-2.806 0-1.774-5.812-8.756-12.981-8.756 3.154 0 5.711 2.537 5.711 5.666m-5.711 5.666c-3.154 0-5.711-2.537-5.711-5.666m19.73-5.666C25.546 7.439 20.931 5.56 16 5.56a19.4 19.4 0 0 0-5.192.709M2.5 10.711c.366-.303.739-.595 1.116-.874M2.5 3.5l25.071 25.312"/>
    </symbol>
    <symbol id="icon-filter" viewBox="0 0 32 32">
      <path stroke-width="2" d="M5.362 3.25h21.275a2.862 2.862 0 0 1 2.081 4.827L19.114 18.25v7.042c0 2.296-2.398 3.803-4.467 2.807a3.116 3.116 0 0 1-1.764-2.807V18.25L3.279 8.077A2.862 2.862 0 0 1 5.36 3.25z"/>
    </symbol>
    <symbol id="icon-Group-6884" viewBox="0 0 32 32">
      <path d="M13.733 6.615c.322-.034.655.001.967.079.927.232 1.556.801 2.033 1.597.38-.04.764-.017 1.135.069a3.135 3.135 0 0 1 1.907 1.378 2.932 2.932 0 0 1 .356 2.287c-.265 1.003-.902 1.525-1.769 2.025.024.616.015 1.234.016 1.85.001.389.026.795-.012 1.182a.975.975 0 0 1-.134.44.81.81 0 0 1-.403.134c-.397.048-.828.015-1.228.015l-2.359-.008c-.839.062-1.728.003-2.572.004-.562 0-1.194.066-1.749.004-.198-.022-.282-.153-.391-.298-.07-1.105-.011-2.247-.01-3.356-.462-.236-.855-.526-1.177-.933a2.877 2.877 0 0 1-.6-2.165 3.118 3.118 0 0 1 1.226-2.042 3.025 3.025 0 0 1 2.247-.573c.113-.196.226-.392.366-.571.54-.688 1.293-1.009 2.149-1.117zm.046 1.357c-.526.103-.98.291-1.297.747-.178.255-.34.988-.562 1.1-.293.035-.6-.1-.885-.162-.571-.124-1.216.102-1.569.561a1.813 1.813 0 0 0-.35 1.365c.07.423.329.778.684 1.021.387.265.818.317 1.085.733.049.963.014 1.943.015 2.908 1.124-.009 2.248-.011 3.372-.007l2.746-.006c0-.489-.106-2.922.123-3.161.107-.112.353-.18.498-.237.654-.254 1.133-.695 1.192-1.421a1.64 1.64 0 0 0-.439-1.267 1.584 1.584 0 0 0-1.117-.524c-.387-.023-1.184.342-1.427.071-.118-.132-.166-.36-.226-.526-.248-.685-.765-1.082-1.493-1.176a2.402 2.402 0 0 0-.349-.019zm12.922-5.599c.244-.018.536-.014.728.161.179.163.188.425.128.643-.145.528-.608 1.16-.887 1.641-.446.768-.863 1.558-1.296 2.334-.268.481-.592.973-.807 1.475-.068.16-.12.328-.112.503.007.152.06.267.178.367.166.141.385.252.61.222.15-.02.27-.098.363-.214.318-.395.506-.945.738-1.391l1.601-3.089c.189-.369.356-.822.622-1.142.14-.169.271-.249.495-.268a.659.659 0 0 1 .487.146.618.618 0 0 1 .206.562c-.061.397-.415.879-.604 1.24l-1.453 2.849c-.259.514-.563 1.039-.772 1.574-.048.124-.097.264-.079.399.021.158.139.297.267.387.143.1.338.167.515.128.203-.045.345-.191.458-.354.259-.37.43-.856.62-1.265l1.241-2.629c.234-.499.447-1.085.758-1.539.112-.163.233-.293.439-.325.209-.032.42.056.578.186.131.109.229.237.235.411.015.447-.805 1.999-1.028 2.497l-.879 1.964c-.432.969-.8 1.94-1.528 2.741-.717.789-1.532 1.124-2.516 1.476-.207.074-.526.147-.702.273-.348.249-.59.709-.795 1.071-.157.279-.357.582-.455.886-.145.449-.049 1.821-.049 2.363l-.002 6.996.004 2.139c.001.419.026.857-.02 1.273a.727.727 0 0 1-.191.432c-.341.331-1.596.214-2.078.211l-3.285-.004c.189-.502.423-.996.67-1.473.426-.044.864-.025 1.293-.025l2.119.001v-9.143c-.274.65-.624 1.286-.94 1.918a350.792 350.792 0 0 0-1.668 3.367 298.654 298.654 0 0 1-2.023 4.092c-.286.568-.541 1.166-.866 1.713a1.639 1.639 0 0 1-.512.564c-.3.192-.664.26-1.015.191a1.272 1.272 0 0 1-.824-.578 1.186 1.186 0 0 1-.135-.992c.169-.561.524-1.103.805-1.617l1.336-2.445c1.618-2.962 3.249-5.923 4.814-8.912.369-.704 1.204-2.04 1.405-2.704.219-.722-.241-1.587-.376-2.298a4.212 4.212 0 0 1 .35-2.665c.214-.421.471-.824.709-1.231l1.234-2.13.996-1.727c.197-.34.383-.707.621-1.021a.84.84 0 0 1 .272-.219z"/>
      <path d="M4.303 1.093c1.142-.06 2.31-.009 3.455-.008l12.521-.001c.966 0 1.97-.055 2.933.006.197.012.421.067.57.203.131.119.187.329.212.496.051.339.021.71.02 1.053l-.008 1.946c-.477.767-.999 1.512-1.5 2.263.044-.504.014-1.029.014-1.536V2.662c-5.711.005-11.429.057-17.14-.003-.058 2.336-.005 4.687-.005 7.025l.003 12.921 10.081-.008c.441-.001.911-.032 1.348.024-.162.503-.471 1.008-.711 1.481l-10.323-.018c-.544.001-1.112-.025-1.651.054a2.598 2.598 0 0 0-1.265.546c-.444.355-.768.868-.814 1.438-.041.502.158.986.484 1.364.306.355.776.624 1.24.711.678.128 1.687.037 2.401.04l4.855.004c.903.001 1.822-.037 2.722.028-.16.467-.306.973-.397 1.457-.814-.072-1.681-.013-2.502-.013l-4.862-.001c-.846.002-1.809.099-2.635-.078-.58-.124-1.124-.425-1.577-.798-.731-.6-1.191-1.526-1.266-2.456-.042-.52-.012-1.06-.009-1.582l.001-2.533v-8.76L.496 7.431C.495 6.65.423 5.276.529 4.538c.1-.731.413-1.418.903-1.976A4.246 4.246 0 0 1 4.304 1.09zm-.452 1.634c-.804.326-1.394.735-1.737 1.551-.118.282-.15.628-.16.932-.05 1.486-.004 2.991-.003 4.48l.001 8.594.001 3.81c0 .432-.081 1.02.015 1.432l.034.012.053-.035c.606-.448 1.12-.693 1.865-.849-.058-2.124-.007-4.264-.005-6.388.003-2.388-.039-4.782-.012-7.169.016-1.562.019-3.125.01-4.687 0-.376.062-1.357-.011-1.665l-.051-.015z"/>
    </symbol>
    <symbol id="icon-home" viewBox="0 0 32 32">
      <path d="M.8 16.838zm0 12.032zm28.062 2.33zm-25.724 0zM31.2 16.838zm0 12.032zm-1.237-15.189zM19.44 2.302zm-6.88 0zM2.037 13.681zm9.286 5.87zm0 10.484zm8.185 1.165zm-7.016 0zm8.185-11.649zm0 10.484zm-1.169-11.649zm-7.016 0zM0 16.838V28.87h1.6V16.838H0zM28.862 30.4H3.139V32h25.723v-1.6zM30.4 16.838V28.87H32V16.838h-1.6zm.15-3.701L20.027 1.759l-1.175 1.086 10.523 11.378 1.175-1.086zM11.973 1.759 1.45 13.137l1.175 1.086L13.148 2.845l-1.175-1.086zm8.054 0a5.49 5.49 0 0 0-8.054 0l1.175 1.086a3.888 3.888 0 0 1 5.704 0l1.175-1.086zM32 16.838a5.451 5.451 0 0 0-1.45-3.701l-1.175 1.086a3.851 3.851 0 0 1 1.025 2.614H32zm-30.4 0c0-.968.366-1.901 1.025-2.614L1.45 13.138a5.45 5.45 0 0 0-1.45 3.7h1.6zM0 28.87A3.134 3.134 0 0 0 3.138 32v-1.6A1.534 1.534 0 0 1 1.6 28.87H0zM28.862 32A3.134 3.134 0 0 0 32 28.87h-1.6c0 .842-.686 1.53-1.538 1.53V32zM10.523 19.551v10.484h1.6V19.551h-1.6zM19.508 30.4h-7.015V32h7.015v-1.6zm.369-10.849v10.484h1.6V19.551h-1.6zm-.369-1.965h-7.015v1.6h7.015v-1.6zm1.969 1.965a1.967 1.967 0 0 0-1.969-1.965v1.6c.207 0 .369.166.369.365h1.6zm-9.354 0c0-.199.162-.365.369-.365v-1.6a1.967 1.967 0 0 0-1.969 1.965h1.6zm-1.6 10.484c0 1.088.884 1.965 1.969 1.965v-1.6a.367.367 0 0 1-.369-.365h-1.6zM19.508 32a1.967 1.967 0 0 0 1.969-1.965h-1.6a.367.367 0 0 1-.369.365V32z"/>
    </symbol>
    <symbol id="icon-left-short" viewBox="0 0 32 32">
      <path stroke-linecap="round" stroke-linejoin="round" stroke-width="2.286" d="M29.714 16.009H2.285m.001-.001 12.305 12.31M2.286 16.008l12.305-12.31"/>
    </symbol>
    <symbol id="icon-photo" viewBox="0 0 32 32">
      <path stroke-width="1.577" d="M21.762 18.305a5.762 5.762 0 1 1-11.525 0 5.762 5.762 0 0 1 11.525 0z"/>
      <path stroke-width="1.577" d="M1.019 26.25V12.207a4.273 4.273 0 0 1 4.273-4.273 4.272 4.272 0 0 0 3.822-2.362l.968-1.937a4.73 4.73 0 0 1 4.231-2.615h3.371a4.73 4.73 0 0 1 4.231 2.615l.968 1.937a4.272 4.272 0 0 0 3.822 2.362 4.273 4.273 0 0 1 4.273 4.273V26.25a4.73 4.73 0 0 1-4.731 4.731h-20.5a4.73 4.73 0 0 1-4.731-4.731z"/>
    </symbol>
    <symbol id="icon-right-short" viewBox="0 0 32 32">
      <path stroke-linecap="round" stroke-linejoin="round" stroke-width="2.286" d="M2.286 16.009h27.429m0-.001-12.306 12.31m12.306-12.31L17.409 3.698"/>
    </symbol>
    <symbol id="icon-top-left" viewBox="0 0 32 32">
      <path stroke-linecap="round" stroke-linejoin="round" stroke-width="2" d="m30.996 16-29.995.006m.001 0 8.075 8.078m-8.075-8.078 8.075-8.078"/>
    </symbol>
    <symbol id="icon-top-right" viewBox="0 0 32 32">
      <path stroke-linecap="round" stroke-linejoin="round" stroke-width="2" d="M1 16.006 30.995 16m-.001 0-8.075-8.078M30.994 16l-8.075 8.078"/>
    </symbol>
    <symbol id="icon-Vector-right" viewBox="0 0 32 32">
      <path stroke-linecap="round" stroke-linejoin="round" stroke-width="1.882" d="M10.932 2.588H5.774a4.127 4.127 0 0 0-4.127 4.127v18.57a4.127 4.127 0 0 0 4.127 4.127h5.158M8.706 16h20.633m0 0-6.19 6.19m6.19-6.19-6.19-6.19"/>
    </symbol>
  </defs>
</svg>
